<svg width="15" height="15" viewBox="0 0 15 15" fill="none" xmlns="http://www.w3.org/2000/svg">
<g clip-path="url(#clip0)">
<path d="M8.82658 7.50085L14.7251 1.60229C15.0916 1.23613 15.0916 0.642019 14.7251 0.275861C14.3587 -0.0906108 13.7652 -0.0906108 13.3987 0.275861L7.50016 6.17442L1.60128 0.275861C1.23481 -0.0906108 0.641325 -0.0906108 0.274854 0.275861C-0.0916178 0.642019 -0.0916178 1.23613 0.274854 1.60229L6.17373 7.50085L0.274854 13.3994C-0.0916178 13.7656 -0.0916178 14.3597 0.274854 14.7258C0.458089 14.9088 0.698234 15.0004 0.938067 15.0004C1.1779 15.0004 1.41804 14.9088 1.60128 14.7255L7.50016 8.82696L13.3987 14.7255C13.582 14.9088 13.8221 15.0004 14.0619 15.0004C14.3018 15.0004 14.5419 14.9088 14.7251 14.7255C15.0916 14.3594 15.0916 13.7653 14.7251 13.3991L8.82658 7.50085Z" fill="white"/>
</g>
<defs>
<clipPath id="clip0">
<rect width="15" height="15" fill="white"/>
</clipPath>
</defs>
</svg>
