<svg width="100" height="100" viewBox="0 0 100 100" fill="none" xmlns="http://www.w3.org/2000/svg">
<rect x="0.5" y="0.5" width="99" height="99" rx="49.5" stroke="#C4C4C4"/>
<path d="M50 49.5845C54.2249 49.5845 57.6503 45.4243 57.6503 40.2923C57.6503 35.1602 56.5257 31 50 31C43.4743 31 42.3495 35.1602 42.3495 40.2923C42.3495 45.4243 45.7748 49.5845 50 49.5845Z" fill="#C4C4C4"/>
<path d="M35.5501 63.7726C35.5488 63.4597 35.5475 63.6845 35.5501 63.7726V63.7726Z" fill="#C4C4C4"/>
<path d="M64.4492 64.017C64.4534 63.9314 64.4507 63.4227 64.4492 64.017V64.017Z" fill="#C4C4C4"/>
<path d="M64.4329 63.3974C64.2913 54.4574 63.1237 51.91 54.189 50.2975C54.189 50.2975 52.9313 51.9001 49.9999 51.9001C47.0685 51.9001 45.8106 50.2975 45.8106 50.2975C36.9734 51.8924 35.7348 54.402 35.5719 63.107C35.5586 63.8178 35.5524 63.8551 35.55 63.7726C35.5506 63.9272 35.5512 64.2132 35.5512 64.7119C35.5512 64.7119 37.6783 69 49.9999 69C62.3212 69 64.4486 64.7119 64.4486 64.7119C64.4486 64.3915 64.4488 64.1687 64.4491 64.0171C64.4467 64.0682 64.442 63.9692 64.4329 63.3974Z" fill="#C4C4C4"/>
</svg>
