<svg width="25" height="25" viewBox="0 0 25 25" fill="none" xmlns="http://www.w3.org/2000/svg">
<rect x="3" y="1" width="4" height="20" rx="2" fill="#F19292"/>
<rect y="3" width="17" height="4" rx="2" fill="#F6D186"/>
<rect y="9" width="12" height="4" rx="2" fill="#CBE2B0"/>
<path d="M12.2744 15.375C12.4404 15.375 12.5788 15.4336 12.6895 15.5508C12.8066 15.668 12.8652 15.8079 12.8652 15.9707V20.4092C12.8652 20.5752 12.8066 20.7135 12.6895 20.8242C12.5788 20.9414 12.4404 21 12.2744 21H12.2646C12.1019 21 11.9619 20.9414 11.8447 20.8242C11.7275 20.7135 11.6689 20.5752 11.6689 20.4092V15.9707C11.6689 15.8079 11.7275 15.668 11.8447 15.5508C11.9619 15.4336 12.1019 15.375 12.2646 15.375H12.2744ZM12.2695 14.7402C12.0807 14.7402 11.9196 14.6735 11.7861 14.54C11.6527 14.4066 11.5859 14.2454 11.5859 14.0566C11.5859 13.8711 11.6527 13.7116 11.7861 13.5781C11.9196 13.4447 12.0807 13.3779 12.2695 13.3779C12.4551 13.3779 12.6146 13.4447 12.748 13.5781C12.8848 13.7083 12.9531 13.8678 12.9531 14.0566C12.9531 14.2487 12.8848 14.4098 12.748 14.54C12.6146 14.6735 12.4551 14.7402 12.2695 14.7402Z" fill="#F19292"/>
<path d="M14.2891 13.373C14.4486 13.373 14.5869 13.43 14.7041 13.5439C14.8213 13.6611 14.8799 13.8011 14.8799 13.9639V20.4092C14.8799 20.5752 14.8213 20.7135 14.7041 20.8242C14.5869 20.9414 14.4486 21 14.2891 21H14.2744C14.1149 21 13.9766 20.9414 13.8594 20.8242C13.7422 20.7135 13.6836 20.5752 13.6836 20.4092V13.9639C13.6836 13.8011 13.7422 13.6611 13.8594 13.5439C13.9766 13.43 14.1149 13.373 14.2744 13.373H14.2891Z" fill="#F19292"/>
<path d="M17.6846 20.4092C17.6846 20.5752 17.626 20.7135 17.5088 20.8242C17.3916 20.9414 17.2533 21 17.0938 21H17.0791C16.9196 21 16.7812 20.9414 16.6641 20.8242C16.5469 20.7135 16.4883 20.5752 16.4883 20.4092V17.7236C16.4883 17.0791 16.7178 16.5257 17.1768 16.0635C17.6357 15.6045 18.1891 15.375 18.8369 15.375C19.6117 15.375 20.196 15.6322 20.5898 16.1465C20.9805 15.6322 21.5632 15.375 22.3379 15.375C22.9857 15.375 23.5391 15.6045 23.998 16.0635C24.457 16.5257 24.6865 17.0791 24.6865 17.7236V20.4092C24.6865 20.5719 24.6296 20.7103 24.5156 20.8242C24.3984 20.9414 24.2585 21 24.0957 21H24.0859C23.9199 21 23.7816 20.9414 23.6709 20.8242C23.5537 20.7135 23.4951 20.5752 23.4951 20.4092V17.7236C23.4951 17.4046 23.3828 17.1328 23.1582 16.9082C22.9336 16.6836 22.6602 16.5713 22.3379 16.5713C22.0189 16.5713 21.7471 16.6836 21.5225 16.9082C21.2979 17.1328 21.1855 17.4046 21.1855 17.7236V20.4092C21.1855 20.5752 21.127 20.7135 21.0098 20.8242C20.8991 20.9414 20.7607 21 20.5947 21H20.585C20.4222 21 20.2822 20.9414 20.165 20.8242C20.0479 20.7135 19.9893 20.5752 19.9893 20.4092V17.7236C19.9893 17.4046 19.877 17.1328 19.6523 16.9082C19.4277 16.6836 19.1559 16.5713 18.8369 16.5713C18.5179 16.5713 18.2461 16.6836 18.0215 16.9082C17.7969 17.1328 17.6846 17.4046 17.6846 17.7236V20.4092Z" fill="#F19292"/>
</svg>
