<svg width="10" height="10" viewBox="0 0 10 10" fill="none" xmlns="http://www.w3.org/2000/svg">
<path d="M9.97385 3.83556C9.90801 3.63307 9.72841 3.48972 9.51677 3.47057L6.63006 3.20849L5.48922 0.537556C5.40499 0.341326 5.21333 0.214676 5.00001 0.214676C4.78669 0.214676 4.59496 0.341326 4.51127 0.537556L3.37042 3.20849L0.48326 3.47057C0.271617 3.4901 0.0923996 3.63346 0.0261753 3.83556C-0.0396675 4.03805 0.0211398 4.26014 0.181207 4.40053L2.36333 6.31393L1.71993 9.14768C1.67286 9.35604 1.75373 9.5715 1.92661 9.69647C2.01954 9.76399 2.12872 9.79771 2.23828 9.79771C2.33243 9.79771 2.42665 9.77269 2.51081 9.72233L5.00001 8.23397L7.48876 9.72233C7.67134 9.83143 7.90091 9.82144 8.07341 9.69647C8.2463 9.5715 8.32717 9.35604 8.2801 9.14768L7.6367 6.31393L9.81882 4.40053C9.97881 4.26014 10.0397 4.03851 9.97385 3.83556Z" fill="#F6D186"/>
</svg>
